<svg width="92" height="95" viewBox="0 0 92 95" fill="none" xmlns="http://www.w3.org/2000/svg">
<path d="M47.1082 9.68634C71.3225 9.68634 90.952 29.5841 90.952 54.1293C90.952 69.3202 83.4333 82.731 71.9623 90.7465" stroke="url(#paint0_linear_12_664)" stroke-width="1.08333" stroke-miterlimit="10"/>
<path d="M74.1277 90.9011C74.1277 89.3327 72.894 88.1004 71.3237 88.1004C69.7535 88.1004 68.5198 89.3327 68.5198 90.9011C68.5198 92.4695 69.7535 93.7018 71.3237 93.7018C72.894 93.8138 74.1277 92.4695 74.1277 90.9011Z" fill="#A6E841" stroke="url(#paint1_linear_12_664)" stroke-width="1.08333" stroke-miterlimit="10"/>
<path d="M24.9417 92.1387C3.68791 79.8678 -3.63239 52.757 8.59129 31.585C16.1565 18.4818 29.4346 10.7241 43.4948 9.62322" stroke="url(#paint2_linear_12_664)" stroke-width="1.08333" stroke-miterlimit="10"/>
<path d="M40.9212 9.05861C40.137 10.4169 40.5893 12.101 41.9491 12.8861C43.309 13.6712 44.9936 13.2208 45.7778 11.8626C46.562 10.5043 46.1097 8.82023 44.7498 8.03512C43.446 7.15299 41.7054 7.70035 40.9212 9.05861Z" fill="#A6E841" stroke="url(#paint3_linear_12_664)" stroke-width="1.08333" stroke-miterlimit="10"/>
<g filter="url(#filter0_b_12_664)">
<path opacity="0.39" d="M47.1204 86.5524C64.9995 86.5524 79.4935 72.0585 79.4935 54.1793C79.4935 36.3002 64.9995 21.8063 47.1204 21.8063C29.2412 21.8063 14.7473 36.3002 14.7473 54.1793C14.7473 72.0585 29.2412 86.5524 47.1204 86.5524Z" fill="url(#paint4_radial_12_664)"/>
</g>
<path fill-rule="evenodd" clip-rule="evenodd" d="M51.3744 50.6114C51.1216 49.8964 50.6533 49.2774 50.0341 48.8396C49.4148 48.4018 48.6751 48.1667 47.9167 48.1667V47.25H46.0834V48.1667C45.111 48.1667 44.1783 48.553 43.4907 49.2406C42.8031 49.9282 42.4167 50.8609 42.4167 51.8333C42.4167 52.8058 42.8031 53.7384 43.4907 54.4261C44.1783 55.1137 45.111 55.5 46.0834 55.5V59.1667C45.2859 59.1667 44.6067 58.6579 44.3537 57.9448C44.3161 57.8281 44.2556 57.7201 44.1756 57.6272C44.0956 57.5344 43.9978 57.4585 43.888 57.4041C43.7781 57.3497 43.6585 57.3178 43.5362 57.3105C43.4138 57.3031 43.2912 57.3203 43.1757 57.3612C43.0601 57.402 42.9539 57.4656 42.8633 57.5482C42.7728 57.6308 42.6997 57.7307 42.6484 57.842C42.5972 57.9534 42.5687 58.0738 42.5648 58.1963C42.5609 58.3188 42.5817 58.4409 42.6257 58.5553C42.8786 59.2702 43.3469 59.8892 43.9661 60.3271C44.5853 60.7649 45.325 61 46.0834 61V61.9167H47.9167V61C48.8892 61 49.8218 60.6137 50.5095 59.9261C51.1971 59.2384 51.5834 58.3058 51.5834 57.3333C51.5834 56.3609 51.1971 55.4282 50.5095 54.7406C49.8218 54.053 48.8892 53.6667 47.9167 53.6667V50C48.2959 49.9999 48.6657 50.1174 48.9754 50.3362C49.285 50.555 49.5191 50.8645 49.6456 51.2219C49.7265 51.4512 49.8953 51.6389 50.1146 51.7437C50.2232 51.7957 50.341 51.8257 50.4612 51.8321C50.5814 51.8385 50.7017 51.8212 50.8152 51.7811C50.9288 51.741 51.0333 51.6789 51.1228 51.5985C51.2123 51.518 51.2852 51.4207 51.3371 51.3121C51.389 51.2034 51.419 51.0857 51.4254 50.9655C51.4318 50.8452 51.4145 50.7249 51.3744 50.6114ZM46.0834 50C45.5972 50 45.1309 50.1932 44.7871 50.537C44.4432 50.8808 44.2501 51.3471 44.2501 51.8333C44.2501 52.3196 44.4432 52.7859 44.7871 53.1297C45.1309 53.4735 45.5972 53.6667 46.0834 53.6667V50ZM47.9167 59.1667C48.403 59.1667 48.8693 58.9735 49.2131 58.6297C49.5569 58.2859 49.7501 57.8196 49.7501 57.3333C49.7501 56.8471 49.5569 56.3808 49.2131 56.037C48.8693 55.6932 48.403 55.5 47.9167 55.5V59.1667Z" fill="#FFF112"/>
<path fill-rule="evenodd" clip-rule="evenodd" d="M37.057 35.9026C39.3065 34.8017 42.997 33.5 47.0358 33.5C50.9903 33.5 54.5836 34.7476 56.8212 35.8338L56.9477 35.8953C57.6224 36.2289 58.1669 36.5443 58.5501 36.8L55.1639 41.75C62.9702 49.7305 69.0001 66.4973 47.0358 66.4973C25.0716 66.4973 30.9391 50.0348 38.8133 41.75L35.4491 36.8C35.7086 36.6304 36.0376 36.4333 36.43 36.2243C36.6243 36.1198 36.8333 36.0117 37.057 35.9026ZM52.9877 41.6849L55.6983 37.7222C53.1775 37.9037 50.1781 38.4958 47.2906 39.3318C45.2281 39.9277 42.9365 39.8369 40.8144 39.4455C40.2796 39.3464 39.7486 39.2283 39.2221 39.0917L40.9821 41.6831C44.7542 43.026 49.2147 43.026 52.9877 41.6849ZM39.9234 43.2442C44.3371 44.9492 49.6419 44.9492 54.0556 43.2423C55.898 45.1845 57.4392 47.3915 58.628 49.7901C59.8673 52.3183 60.542 54.8455 60.432 57.0235C60.3256 59.1254 59.4988 60.9212 57.6105 62.2558C55.6424 63.6464 52.3323 64.6639 47.0349 64.6639C41.732 64.6639 38.4063 63.6638 36.4199 62.2888C34.5178 60.9716 33.6827 59.1997 33.5645 57.1262C33.4407 54.972 34.1007 52.4576 35.3355 49.912C36.5134 47.4847 38.157 45.1481 39.9234 43.2442ZM38.8692 37.0897C39.6026 37.3078 40.3689 37.4976 41.1462 37.6415C43.1171 38.0045 45.0934 38.0577 46.7801 37.5691C48.7456 36.9965 50.7447 36.5461 52.7659 36.2207C51.0792 35.7128 49.1066 35.3333 47.0349 35.3333C43.877 35.3333 40.9317 36.2143 38.8692 37.0897Z" fill="#FFF112"/>
<defs>
<filter id="filter0_b_12_664" x="-0.0494337" y="7.00953" width="94.3396" height="94.3397" filterUnits="userSpaceOnUse" color-interpolation-filters="sRGB">
<feFlood flood-opacity="0" result="BackgroundImageFix"/>
<feGaussianBlur in="BackgroundImageFix" stdDeviation="7.39837"/>
<feComposite in2="SourceAlpha" operator="in" result="effect1_backgroundBlur_12_664"/>
<feBlend mode="normal" in="SourceGraphic" in2="effect1_backgroundBlur_12_664" result="shape"/>
</filter>
<linearGradient id="paint0_linear_12_664" x1="69.1697" y1="-27.3967" x2="130.094" y2="62.7113" gradientUnits="userSpaceOnUse">
<stop offset="0.303689" stop-color="#577626" stop-opacity="0"/>
<stop offset="0.674376" stop-color="#A6E841"/>
<stop offset="0.89827" stop-color="#FFF112"/>
</linearGradient>
<linearGradient id="paint1_linear_12_664" x1="71.3416" y1="85.5349" x2="74.2717" y2="93.5471" gradientUnits="userSpaceOnUse">
<stop offset="0.303689" stop-color="#577626" stop-opacity="0"/>
<stop offset="0.674376" stop-color="#A6E841"/>
<stop offset="0.89827" stop-color="#FFF112"/>
</linearGradient>
<linearGradient id="paint2_linear_12_664" x1="-12.8902" y1="112.946" x2="-19.7336" y2="4.23592" gradientUnits="userSpaceOnUse">
<stop offset="0.303689" stop-color="#577626" stop-opacity="0"/>
<stop offset="0.674376" stop-color="#A6E841"/>
<stop offset="0.89827" stop-color="#FFF112"/>
</linearGradient>
<linearGradient id="paint3_linear_12_664" x1="40.6509" y1="15.0989" x2="42.1195" y2="6.69514" gradientUnits="userSpaceOnUse">
<stop offset="0.303689" stop-color="#577626" stop-opacity="0"/>
<stop offset="0.674376" stop-color="#A6E841"/>
<stop offset="0.89827" stop-color="#FFF112"/>
</linearGradient>
<radialGradient id="paint4_radial_12_664" cx="0" cy="0" r="1" gradientUnits="userSpaceOnUse" gradientTransform="translate(47.1277 54.1726) scale(40.2261)">
<stop stop-color="#A6E841"/>
<stop offset="0.99" stop-color="white" stop-opacity="0"/>
</radialGradient>
</defs>
</svg>
