<svg width="92" height="95" viewBox="0 0 92 95" fill="none" xmlns="http://www.w3.org/2000/svg">
<path d="M47.1082 9.68634C71.3225 9.68634 90.952 29.5841 90.952 54.1293C90.952 69.3202 83.4333 82.731 71.9623 90.7465" stroke="url(#paint0_linear_12_627)" stroke-width="1.08333" stroke-miterlimit="10"/>
<path d="M74.1277 90.9011C74.1277 89.3327 72.894 88.1004 71.3237 88.1004C69.7535 88.1004 68.5198 89.3327 68.5198 90.9011C68.5198 92.4695 69.7535 93.7018 71.3237 93.7018C72.894 93.8138 74.1277 92.4695 74.1277 90.9011Z" fill="#A6E841" stroke="url(#paint1_linear_12_627)" stroke-width="1.08333" stroke-miterlimit="10"/>
<path d="M24.9417 92.1387C3.68791 79.8678 -3.63239 52.757 8.59129 31.585C16.1565 18.4818 29.4346 10.7241 43.4948 9.62322" stroke="url(#paint2_linear_12_627)" stroke-width="1.08333" stroke-miterlimit="10"/>
<path d="M40.9212 9.05861C40.137 10.4169 40.5893 12.101 41.9491 12.8861C43.309 13.6712 44.9936 13.2208 45.7778 11.8626C46.562 10.5043 46.1097 8.82023 44.7498 8.03512C43.446 7.15299 41.7054 7.70035 40.9212 9.05861Z" fill="#A6E841" stroke="url(#paint3_linear_12_627)" stroke-width="1.08333" stroke-miterlimit="10"/>
<g filter="url(#filter0_b_12_627)">
<path opacity="0.39" d="M47.1204 86.5524C64.9995 86.5524 79.4935 72.0585 79.4935 54.1793C79.4935 36.3002 64.9995 21.8063 47.1204 21.8063C29.2412 21.8063 14.7473 36.3002 14.7473 54.1793C14.7473 72.0585 29.2412 86.5524 47.1204 86.5524Z" fill="url(#paint4_radial_12_627)"/>
</g>
<path d="M57.6512 47.5262C58.75 46.4275 58.75 44.6613 58.75 41.125C58.75 37.5887 58.75 35.8225 57.6512 34.7237M57.6512 47.5262C56.5525 48.625 54.7863 48.625 51.25 48.625H43.75C40.2137 48.625 38.4475 48.625 37.3487 47.5262M57.6512 34.7237C56.5525 33.625 54.7863 33.625 51.25 33.625H43.75C40.2137 33.625 38.4475 33.625 37.3487 34.7237M37.3487 34.7237C36.25 35.8225 36.25 37.5887 36.25 41.125C36.25 44.6613 36.25 46.4275 37.3487 47.5262M49.375 41.125C49.375 41.6223 49.1775 42.0992 48.8258 42.4508C48.4742 42.8025 47.9973 43 47.5 43C47.0027 43 46.5258 42.8025 46.1742 42.4508C45.8225 42.0992 45.625 41.6223 45.625 41.125C45.625 40.6277 45.8225 40.1508 46.1742 39.7992C46.5258 39.4475 47.0027 39.25 47.5 39.25C47.9973 39.25 48.4742 39.4475 48.8258 39.7992C49.1775 40.1508 49.375 40.6277 49.375 41.125Z" stroke="#FFF112" stroke-width="2.8125"/>
<path d="M58.75 39.25C57.2582 39.25 55.8274 38.6574 54.7725 37.6025C53.7176 36.5476 53.125 35.1168 53.125 33.625M58.75 43C57.2582 43 55.8274 43.5926 54.7725 44.6475C53.7176 45.7024 53.125 47.1332 53.125 48.625M36.25 39.25C37.7418 39.25 39.1726 38.6574 40.2275 37.6025C41.2824 36.5476 41.875 35.1168 41.875 33.625M36.25 43C37.7418 43 39.1726 43.5926 40.2275 44.6475C41.2824 45.7024 41.875 47.1332 41.875 48.625M34.375 66.2275H38.6125C40.5063 66.2275 42.4244 66.4262 44.2675 66.805C47.5581 67.481 50.9439 67.556 54.2613 67.0262C55.8888 66.7637 57.4863 66.3606 58.9338 65.6631C60.2388 65.0312 61.8381 64.1444 62.9125 63.1488C63.985 62.155 65.1025 60.5294 65.8938 59.2581C66.5763 58.1669 66.2463 56.83 65.17 56.0181C64.5652 55.5782 63.8366 55.3412 63.0888 55.3412C62.3409 55.3412 61.6123 55.5782 61.0075 56.0181L57.6194 58.5775C56.3069 59.5713 54.8725 60.4844 53.1644 60.7562C52.9581 60.7881 52.7425 60.8181 52.5175 60.8444M52.5175 60.8444C52.4488 60.8523 52.3801 60.8598 52.3113 60.8669M52.5175 60.8444C52.8176 60.7632 53.0928 60.6086 53.3181 60.3944C53.6007 60.1499 53.8314 59.8514 53.9967 59.5164C54.162 59.1813 54.2585 58.8165 54.2805 58.4436C54.3025 58.0706 54.2496 57.6971 54.1249 57.3449C54.0002 56.9927 53.8062 56.6691 53.5544 56.3931C53.31 56.1219 53.0255 55.8898 52.7106 55.705C47.4663 52.5756 39.3044 54.9588 34.375 58.4556M52.5175 60.8444C52.4497 60.8591 52.3806 60.8667 52.3113 60.8669M52.3113 60.8669C51.1805 60.9805 50.0413 60.983 48.91 60.8744" stroke="#FFF112" stroke-width="2.8125" stroke-linecap="round"/>
<path d="M34.375 57.0625C34.375 55.5092 33.1158 54.25 31.5625 54.25C30.0092 54.25 28.75 55.5092 28.75 57.0625V66.4375C28.75 67.9908 30.0092 69.25 31.5625 69.25C33.1158 69.25 34.375 67.9908 34.375 66.4375V57.0625Z" stroke="#FFF112" stroke-width="2.8125"/>
<defs>
<filter id="filter0_b_12_627" x="-0.0494337" y="7.00953" width="94.3396" height="94.3397" filterUnits="userSpaceOnUse" color-interpolation-filters="sRGB">
<feFlood flood-opacity="0" result="BackgroundImageFix"/>
<feGaussianBlur in="BackgroundImageFix" stdDeviation="7.39837"/>
<feComposite in2="SourceAlpha" operator="in" result="effect1_backgroundBlur_12_627"/>
<feBlend mode="normal" in="SourceGraphic" in2="effect1_backgroundBlur_12_627" result="shape"/>
</filter>
<linearGradient id="paint0_linear_12_627" x1="69.1697" y1="-27.3967" x2="130.094" y2="62.7113" gradientUnits="userSpaceOnUse">
<stop offset="0.303689" stop-color="#577626" stop-opacity="0"/>
<stop offset="0.674376" stop-color="#A6E841"/>
<stop offset="0.89827" stop-color="#FFF112"/>
</linearGradient>
<linearGradient id="paint1_linear_12_627" x1="71.3416" y1="85.5349" x2="74.2717" y2="93.5471" gradientUnits="userSpaceOnUse">
<stop offset="0.303689" stop-color="#577626" stop-opacity="0"/>
<stop offset="0.674376" stop-color="#A6E841"/>
<stop offset="0.89827" stop-color="#FFF112"/>
</linearGradient>
<linearGradient id="paint2_linear_12_627" x1="-12.8902" y1="112.946" x2="-19.7336" y2="4.23592" gradientUnits="userSpaceOnUse">
<stop offset="0.303689" stop-color="#577626" stop-opacity="0"/>
<stop offset="0.674376" stop-color="#A6E841"/>
<stop offset="0.89827" stop-color="#FFF112"/>
</linearGradient>
<linearGradient id="paint3_linear_12_627" x1="40.6509" y1="15.0989" x2="42.1195" y2="6.69514" gradientUnits="userSpaceOnUse">
<stop offset="0.303689" stop-color="#577626" stop-opacity="0"/>
<stop offset="0.674376" stop-color="#A6E841"/>
<stop offset="0.89827" stop-color="#FFF112"/>
</linearGradient>
<radialGradient id="paint4_radial_12_627" cx="0" cy="0" r="1" gradientUnits="userSpaceOnUse" gradientTransform="translate(47.1277 54.1726) scale(40.2261)">
<stop stop-color="#A6E841"/>
<stop offset="0.99" stop-color="white" stop-opacity="0"/>
</radialGradient>
</defs>
</svg>
